PathFileType	4	(X/Y/Z)	C:/Users/opensim2020/Desktop/walking_exp_matlab/subject06_walking13_straight_04.trc	
DataRate	CameraRate	NumFrames	NumMarkers	Units	OrigDataRate	OrigDataStartFrame	OrigNumFrames	
100.00	100.00	7	50	mm	100.00	2936	204	
Frame#	Time	LFHD			RFHD			LBHD			RBHD			C7			T10			CLAV			STRN			RBAK			LSHO			LUPA			LELB			LFRM			LWRA			LWRB			LFIN			RSHO			RUPA			RELB			RFRM			RWRA			RWRB			RFIN			LASI			RASI			LPSI			RPSI			LTHI			LKNE			LTIB			LANK			LHEE			LTOE			RTHI			RKNE			RTIB			RANK			RHEE			RTOE			*39			*40			*41			*42			*43			*44			*45			*46			*47			*48			*49			
		X1	Y1	Z1	X2	Y2	Z2	X3	Y3	Z3	X4	Y4	Z4	X5	Y5	Z5	X6	Y6	Z6	X7	Y7	Z7	X8	Y8	Z8	X9	Y9	Z9	X10	Y10	Z10	X11	Y11	Z11	X12	Y12	Z12	X13	Y13	Z13	X14	Y14	Z14	X15	Y15	Z15	X16	Y16	Z16	X17	Y17	Z17	X18	Y18	Z18	X19	Y19	Z19	X20	Y20	Z20	X21	Y21	Z21	X22	Y22	Z22	X23	Y23	Z23	X24	Y24	Z24	X25	Y25	Z25	X26	Y26	Z26	X27	Y27	Z27	X28	Y28	Z28	X29	Y29	Z29	X30	Y30	Z30	X31	Y31	Z31	X32	Y32	Z32	X33	Y33	Z33	X34	Y34	Z34	X35	Y35	Z35	X36	Y36	Z36	X37	Y37	Z37	X38	Y38	Z38	X39	Y39	Z39	X40	Y40	Z40	X41	Y41	Z41	X42	Y42	Z42	X43	Y43	Z43	X44	Y44	Z44	X45	Y45	Z45	X46	Y46	Z46	X47	Y47	Z47	X48	Y48	Z48	X49	Y49	Z49	X50	Y50	Z50	

77	0.760	1495.39209	517.39856	1648.24829	1364.36267	521.34277	1636.37952	1499.30029	652.33246	1594.60925	1370.80176	653.84674	1588.70935	1439.91211	655.64923	1434.81641	1427.37732	690.03046	1104.84058	1439.51111	543.43762	1358.03723	1440.46155	505.94739	1182.34509	1354.49341	727.32043	1265.47974	1600.66907	604.34863	1386.97864	1666.45740	664.25342	1195.90234	1670.22070	707.31744	1091.48364	1684.07434	740.32928	943.43579	1630.32666	736.87317	818.29077	1678.04028	787.51251	834.18140	1665.10950	786.50836	742.95844	1278.97083	590.46997	1394.58289	1178.57520	601.84979	1200.67200	1155.65137	562.50732	1089.50684	1141.79883	479.59433	1008.16772	1188.57593	347.58795	946.42346	1140.05249	381.14072	914.43500	1145.70215	302.15549	886.77313	1534.18616	502.91269	954.03363	1315.74438	515.90930	949.64935	1517.82349	663.77277	971.46198	1349.19702	665.23065	972.55865	1611.22766	501.85867	644.50763	1581.32800	444.59848	494.33426	1576.60999	404.87762	241.76660	1538.64099	347.02744	76.66750	1490.81787	378.10510	50.85238	1538.06348	200.03935	89.64246	1278.16321	611.93060	617.21710	1301.11023	635.43616	492.11337	1312.18921	789.63800	266.77316	1360.42078	885.86017	108.41486	1406.59644	931.85162	98.50898	1354.17969	754.34808	37.16787	1438.51892	619.66394	1687.16553																														 
78	0.770	1496.09045	506.26138	1647.77271	1365.03674	510.35114	1635.70056	1500.15039	641.19531	1594.12817	1371.64880	642.88605	1588.10095	1440.88733	644.63843	1434.07971	1428.57898	678.31104	1104.05188	1440.46387	532.27020	1357.54993	1441.47327	494.36389	1181.96814	1355.67200	716.16052	1264.59717	1601.67712	593.10175	1386.55847	1667.27832	652.95844	1195.46997	1670.81750	696.06952	1091.03235	1684.31934	729.23199	942.95300	1630.11011	726.29474	818.05859	1678.25769	776.52728	833.83716	1664.73999	776.07635	742.64325	1279.95947	579.70154	1393.91772	1179.92017	590.83057	1199.90332	1156.93237	551.37836	1088.68274	1143.24084	468.69302	1006.72760	1189.82629	337.04205	944.12939	1141.50732	370.93695	912.31287	1146.97681	292.11060	884.18793	1535.25269	490.01569	953.92993	1316.62549	504.05533	949.33905	1519.00635	651.04694	970.76685	1350.56726	653.23260	971.68445	1610.59558	488.48526	644.34558	1580.91431	431.20563	494.13242	1575.77869	393.78558	240.69841	1537.03125	338.22260	75.03268	1489.68494	370.13376	49.32767	1534.89771	191.15642	87.38414	1278.70959	599.93512	616.75073	1301.11304	623.31256	491.54715	1312.41418	782.24042	269.24689	1360.35608	882.41577	113.57724	1406.74390	928.46594	105.23395	1354.25366	753.75415	37.32078	1439.17651	608.48096	1686.57581																														 
79	0.780	1496.74329	495.12845	1647.32153	1365.73083	499.35358	1635.15088	1501.02063	630.04956	1593.78967	1372.50159	631.83746	1587.62207	1442.05640	633.59851	1433.47766	1429.81458	666.41260	1103.40759	1441.45557	521.06873	1357.15149	1442.56421	482.64786	1181.77844	1356.93884	704.97272	1263.92444	1602.73853	581.74310	1386.25586	1668.19116	641.32501	1195.07092	1671.58496	684.47644	1090.63147	1684.78650	717.54034	942.49817	1628.26270	716.96405	817.28314	1678.53186	764.64404	833.27985	1664.50195	764.66370	742.19403	1281.10144	568.89655	1393.39502	1181.39709	579.83923	1199.29932	1158.70325	540.04608	1087.91089	1144.75806	458.09528	1005.18707	1191.31226	326.94470	941.42413	1143.01599	361.43918	909.62793	1148.42969	282.53619	881.01184	1535.99988	477.05396	953.89514	1317.52246	492.08194	949.14130	1520.18018	637.78790	970.19775	1351.96973	640.93323	970.97693	1609.90662	474.62924	644.32813	1580.32800	417.79526	493.80258	1574.95349	383.53238	239.38878	1535.61267	331.11774	73.03558	1488.99854	364.20477	47.97779	1531.36548	184.30374	83.89056	1279.06140	587.52631	616.15698	1301.20703	609.99957	490.75726	1312.84717	774.37579	272.34848	1360.72058	878.33459	119.14501	1407.28723	924.19482	112.72057	1354.45728	752.93140	37.51368	1439.78137	597.19641	1686.05188																														 
80	0.790	1497.45593	483.92026	1647.15308	1366.43640	488.39383	1634.67737	1502.00928	618.88287	1593.53467	1373.45630	620.89343	1587.21460	1443.26917	622.52405	1432.94702	1431.24988	654.26666	1102.82153	1442.54480	509.76477	1356.92639	1443.72534	470.71631	1181.71985	1358.39124	693.65674	1263.41589	1603.88440	570.34021	1386.16833	1669.25623	629.45111	1194.80005	1672.48730	672.44025	1090.24011	1685.49194	705.22754	942.06177	1628.53247	704.60474	816.97205	1678.85925	751.96460	832.62579	1664.51807	752.34839	741.68768	1282.33679	558.12164	1392.92920	1182.96240	568.85327	1198.84985	1160.46326	529.12848	1087.14783	1146.47791	447.77954	1003.51898	1192.83813	317.31631	938.31067	1144.60291	352.27396	906.81842	1149.90381	273.77704	877.48438	1536.79065	463.80048	953.95959	1318.36377	479.72366	949.08325	1521.39404	624.27594	969.79755	1353.51758	628.37518	970.38428	1609.34888	460.39145	644.26141	1579.78796	404.69891	493.08673	1574.10327	374.17838	237.97655	1534.37476	325.37256	70.84599	1488.46741	359.97330	46.44626	1527.77075	178.97491	79.53429	1279.25891	574.53162	615.65186	1301.09277	595.88843	489.89133	1313.36572	765.18225	275.28061	1361.57239	873.26410	125.28312	1408.49048	918.79620	120.81631	1354.85461	752.07349	37.69312	1440.44592	585.94379	1685.69470																														 
81	0.800	1498.15771	472.80661	1647.04724	1367.13672	477.47131	1634.36401	1502.56335	607.26672	1593.26624	1374.47339	610.04938	1586.91394	1444.62061	611.46326	1432.50659	1432.86414	641.85498	1102.32166	1443.68225	498.51151	1356.79041	1444.96643	458.58258	1181.88330	1360.03760	682.37183	1262.99548	1605.16016	558.88989	1386.14734	1670.44543	617.33325	1194.60242	1673.57007	660.02209	1089.91101	1686.38989	692.33124	941.60248	1629.08386	691.39203	816.64368	1679.83643	738.90863	832.30176	1664.94531	739.21326	741.15955	1283.75940	547.35040	1392.53931	1184.55444	557.87585	1198.42688	1162.22864	518.42407	1086.43274	1148.18982	437.91077	1001.75854	1194.32397	308.13498	934.81775	1146.15649	343.72870	903.77332	1151.37109	265.47131	873.36615	1537.62903	450.27454	954.14899	1319.18909	467.29974	949.05054	1522.96033	610.78156	969.58337	1355.15271	615.58789	969.90509	1609.33459	446.10971	644.07904	1579.84583	392.24487	492.33896	1572.95752	365.48325	236.70297	1533.09106	321.10626	69.12208	1487.26697	357.52768	46.86576	1524.28711	174.89484	71.62757	1279.42639	560.75739	615.09918	1300.72742	580.88434	488.94040	1314.22217	754.96008	278.46790	1363.08667	867.44971	132.12727	1410.38074	912.14410	129.66557	1355.30481	751.03027	37.82270	1441.29492	574.83575	1685.45801																														 
82	0.810	1498.89294	461.74591	1647.36548	1367.79944	466.65997	1634.41479	1503.49426	595.91522	1593.36694	1375.56726	599.11145	1586.80481	1446.15747	600.50946	1432.26978	1434.49146	629.26379	1101.96094	1444.93396	487.13928	1357.06165	1446.20190	446.42700	1182.29639	1361.88623	671.04059	1262.55676	1606.57166	547.35217	1386.36462	1671.79688	604.90424	1194.55188	1674.79236	647.19415	1089.60242	1687.37488	678.78223	941.08154	1629.87830	677.39374	816.22809	1680.69336	724.66937	831.34564	1665.40137	725.02881	740.45209	1285.15356	536.61835	1392.38513	1186.14160	546.87488	1198.05615	1164.33167	507.75278	1085.70020	1150.05786	428.37912	999.87091	1195.93481	299.49274	931.02863	1147.78479	335.59769	900.53674	1152.88599	257.90811	868.88190	1538.42615	436.82352	954.51379	1320.06067	454.47571	949.19122	1524.67554	597.45764	969.80914	1356.72632	602.72217	969.57758	1609.88867	432.16843	644.03339	1580.56604	380.11877	492.06970	1571.84424	357.05688	236.40860	1533.32068	318.10474	68.66406	1487.60693	355.51450	47.97661	1520.75781	171.15889	63.30370	1279.67554	546.33167	614.39960	1300.13831	564.98993	487.97345	1315.12268	743.97784	282.10452	1364.59656	860.71124	139.56149	1412.63525	904.06683	139.31924	1355.79736	749.86743	37.92883	1442.09387	563.86145	1685.55896																														 
83	0.820	1499.55957	450.61960	1648.31897	1368.48022	455.94669	1634.99890	1504.45056	584.37073	1593.91125	1376.78833	588.26233	1587.09277	1447.81238	589.40295	1432.66260	1435.84485	616.76752	1101.94153	1446.13000	475.59695	1357.85425	1447.37561	434.53815	1183.04358	1364.07190	659.70343	1262.32898	1608.12024	535.60681	1386.75476	1673.26038	592.13690	1194.50342	1676.08960	633.79980	1089.19128	1688.31396	664.38660	940.36896	1630.86389	662.57263	815.82428	1681.96924	710.13300	830.88171	1666.51733	710.23859	739.84540	1286.38989	525.97528	1392.49182	1187.83313	536.03180	1197.77527	1166.22278	497.45383	1085.00269	1151.97424	419.21719	997.84894	1197.46997	291.21921	926.94159	1149.41162	328.01904	897.03809	1154.34485	250.84657	864.03412	1539.27820	423.27469	955.27032	1321.12878	441.56564	949.42096	1526.26379	584.46503	970.63788	1358.15332	589.86920	969.49243	1610.92114	418.83005	644.65704	1581.55164	367.82434	492.89777	1572.88196	348.97275	237.22499	1534.09937	314.54230	68.15132	1489.31445	353.79715	49.05432	1517.97705	168.35902	58.98803	1279.85413	531.20129	613.69525	1299.47253	548.24481	487.03915	1316.29468	731.50757	285.93634	1366.27820	851.88934	147.56438	1415.08411	894.13177	149.91779	1356.17932	748.98108	38.18083	1442.93152	552.98157	1686.11926																														 
